<?xml version="1.0" encoding="UTF-8"?><svg id="Camada_1" xmlns="http://www.w3.org/2000/svg" xmlns:xlink="http://www.w3.org/1999/xlink" viewBox="0 0 1042.4 516.47"><defs><style>.cls-1{fill:#fff;}.cls-2{fill:url(#Gradiente_sem_nome_12);}.cls-3{fill:#891913;}.cls-4{fill:#696767;}.cls-5{fill:#891a13;}.cls-6{fill:#891a14;}</style><linearGradient id="Gradiente_sem_nome_12" x1="0" y1="136.18" x2="510.87" y2="136.18" gradientUnits="userSpaceOnUse"><stop offset="0" stop-color="#b31d1a"/><stop offset="1" stop-color="#891913"/></linearGradient></defs><path class="cls-3" d="m461.7,403.9h34.32c-11.18,16.76-24.41,30.8-38.31,44.28-4.21,5.51-9.84,9.47-15.18,13.69-14.78,11.68-30.81,21.37-47.76,29.59-18.92,8.86-38.59,15.51-59.03,19.85-.51.11-1.03.09-1.56.11-14.76,2.97-29.67,4.53-44.7,5-13.09.3-26.12-.7-39.13-1.97-3.05-.3-6.13-.77-9.13-1.51-10.94-2.01-21.79-4.4-32.41-7.73-12.55-3.8-24.69-8.7-36.6-14.17-8.67-4.25-17.08-8.99-25.29-14.07-7.01-4.39-13.79-9.11-20.42-14.05-6.99-5.46-13.67-11.29-20.25-17.23-5.81-5.94-11.87-11.64-17.31-17.94-6.45-7.47-12.5-15.25-18.15-23.34-7.01-10.25-13.34-20.9-18.79-32.06-4.38-9.02-8.41-18.18-11.7-27.67-9.24-25.73-14.06-52.3-14.91-79.6-.06-1.94-.83-5.01,1.4-5.44,2.13-.41,2.07,2.76,2.72,4.44,2.3,5.89,4.52,11.81,6.46,17.83.84,2.61,2.26,3.23,4.65,2,2.3-1.18,4.6-2.35,7-3.32,7.92-3.68,15.84-7.4,23.76-11.08,6.65-3.2,13.44-6.11,20-9.52,1.99-.93,3.98-1.85,6-2.69,2.59-1.08,3.89-.29,4.19,2.48.65,6.02.28,12.09,1.1,18.11,1.23,9.03,2.58,18.03,5.01,26.82,4.08,15.31,9.97,29.89,17.89,43.62,7.73,13.26,16.78,25.51,27.51,36.52,10.89,10.78,22.6,20.52,35.83,28.35,19.37,11.82,40.22,19.84,62.49,24.16,1.28.25,2.59.01,3.88.27,5.53,1.46,11.25,1.85,16.88,2.06,18.88.7,37.68,0,56.04-5.2.62-.18,1.29-.14,1.91-.31,14.16-3.75,27.66-9.17,40.64-15.97,8.18-4.28,15.55-9.76,23.27-14.75,1.22-.53,2.51-.58,3.81-.6,20.29-.3,40.58.53,60.88.39,1.04,0,2.08,0,2.98.64Z"/><g><g><path class="cls-3" d="m653.43,163.65c6.61.07,13.22.22,19.82.15,2.55-.03,3.42.33,2.55,3.19-9.94,32.35-21.08,64.28-33.4,95.79-.99,2.53-3.69,3.6-4.97,3.61-6.09.02-15.66-.2-21.75-.07-3.05.07-4.61-.86-5.4-4.1-3.89-16.01-7.95-31.99-12.85-47.73-1.34-4.3-2.44-8.69-4.65-13.34-1.48,5.36-2.98,10.28-4.36,15.23-4.9,15.25-9.91,30.46-15.39,45.52-1.15,3.16-2.64,4.73-6.13,4.43-3.09-.26-6.22-.06-9.33-.05-4.02,0-8.04-.16-12.05.05-3.27.17-4.98-1.06-5.9-4.22-5.29-18.23-11.4-36.21-17.56-54.16-3.1-9.04-6.36-17.5-9.71-26.44-.01-.36-1.12-.02-2.12-.09-7.16.1-14.31.02-21.45.05-4.41,0-8.83.16-13.23-.05-3.3-.16-4.18,1.17-4.17,4.32.1,23.98.06,47.96.05,71.94,0,1.3.03,2.59-.02,3.89-.16,4.05-.79,4.8-4.86,4.68-6.32-.18-12.68.71-18.97-.51-1.42-1.81-.97-3.96-.97-5.98-.03-24.15,0-48.29-.04-72.44,0-1.77.43-3.63-.69-5.27-2.71-1.2-5.56-.49-8.34-.55-5.77-.12-11.54-.04-17.31-.04-3.76-.01-7.53-.03-11.29,0-2.28.02-3.31-.97-3.29-3.26.03-3.76.05-7.52,0-11.28-.04-2.48,1.26-3.5,3.53-3.68.78-.06,1.56-.06,2.33-.05,38.66.13,77.32.02,115.97.07,1.04,0,2.08,0,3.1.16,1.96.47,2.91,1.82,3.64,3.65,7.56,19,13.8,38.46,20.03,57.91,1.11,3.82,2.24,7.64,3.73,11.74,1.14-1.71,1.76-3.21,2.29-4.75,7.13-20.87,14.51-41.65,19.88-63.07,1.52-6.08,1.5-6.09,7.72-6.09,1.3,0,2.59,0,3.89,0,2.72,0,5.46.15,8.17-.04,3.09-.22,4.77,1.01,5.74,3.95,6.43,19.41,12.97,38.78,18.65,58.43,1.1,3.82,2.08,7.67,3.43,11.66,1.59-2.39,2.14-4.92,3.04-7.32,7.57-20.34,14.11-41.01,20-61.88.47-1.67.8-3.29,2.67-3.95Z"/><path class="cls-5" d="m253.12,306.15c1.32-2.33,2.83-3.78,6.22-3.82s6.08,0,8.97-.02c6.19-.05,7.91.11,7.88,4.6-.16,21.39-.14,42.78-.01,64.17.02,2.96-.27,4.14-2.98,4.22-.46.04-2.87.03-4.28.06-2.67.05-4.88.01-7.17.08-1.8.05-2.43-1.23-2.66-2.77-.23-1.54-.16-3.1-.16-4.66,0-12.83.19-28.64.21-41.47,0-1.69-12.83,24.09-19.37,37.24-.76,1.54-1.63,3.05-2.87,4.25-.11.11-.28.26-.42.31-.99.35-6.63.49-10.93.32-2.4-.59-3.14-1.95-4.05-3.69-4.79-9.18-9.02-18.63-13.7-27.85-1.76-3.46-3.58-6.89-5.81-10.45,0,13.44,0,26.65,0,39.86,0,1.42.04,2.85-.03,4.27-.19,4.15-.71,4.66-4.83,4.7-2.85.03-5.71-.12-8.55.04-3.03.17-4.13-1.06-4.1-4.08.1-11.91.04-23.83.04-35.75,0-9.58-.02-19.17,0-28.75.01-4.35.25-4.56,4.68-4.58,5.18-.03,10.37.06,15.55-.04,2.19-.04,3.55.71,4.67,2.66,6.79,11.77,20.2,39.87,21.83,39.92,2.4.07,16.1-28.52,21.88-38.76Z"/><path class="cls-5" d="m766.09,306.15c1.32-2.33,2.83-3.78,6.22-3.82s6.08,0,8.97-.02c6.19-.05,7.91.11,7.88,4.6-.16,21.39-.14,42.78-.01,64.17.02,2.96-.27,4.14-2.98,4.22-.46.04-2.87.03-4.28.06-2.67.05-4.88.01-7.17.08-1.8.05-2.43-1.23-2.66-2.77-.23-1.54-.16-3.1-.16-4.66,0-12.83.19-28.64.21-41.47,0-1.69-12.83,24.09-19.37,37.24-.76,1.54-1.63,3.05-2.87,4.25-.11.11-.28.26-.42.31-.99.35-6.63.49-10.93.32-2.4-.59-3.14-1.95-4.05-3.69-4.79-9.18-9.02-18.63-13.7-27.85-1.76-3.46-3.58-6.89-5.81-10.45,0,13.44,0,26.65,0,39.86,0,1.42.04,2.85-.03,4.27-.19,4.15-.71,4.66-4.83,4.7-2.85.03-5.71-.12-8.55.04-3.03.17-4.13-1.06-4.1-4.08.1-11.91.04-23.83.04-35.75,0-9.58-.02-19.17,0-28.75.01-4.35.25-4.56,4.68-4.58,5.18-.03,10.37.06,15.55-.04,2.19-.04,3.55.71,4.67,2.66,6.79,11.77,20.2,39.87,21.83,39.92,2.4.07,16.1-28.52,21.88-38.76Z"/><path class="cls-5" d="m438.14,302.46c7.4,0,8.67-1.22,8.55,8.41.06,19.4-.09,39.95.12,59.35.04,3.58-.94,4.87-4.31,4.97-2.65.05-5.42.04-8.14.09-7-.08-7.48-.1-10.92-4.42-2.43-3.6-30.24-43.77-32.87-46.35-.1,1.49-.23,3.87-.24,5.44-.03,13.07,0,26.14-.02,39.21-.01,5.57-.46,5.99-5.93,6-2.72,0-5.44-.06-8.16.01-2.47.07-3.54-1.16-3.71-3.46-.08-1.03-.07-2.07-.07-3.1-.05-20.06.07-40.11.07-60.17,0-1.29-.06-2.59.18-3.87.26-1.41,1.07-2.16,2.63-2.17,6.34-.04,12.37,0,18.98-.01.51.04.93.42,1.35.71,2.91,3.63,5.88,7.29,8.7,11.11,5.23,7.2,10.27,14.43,15.41,21.8,3.19,4.65,5.92,8.86,9.55,13.92,0-11.8,0-23.41,0-35.03,0-2.06,0-4.13,0-6.19.04-6.96.03-6.25,8.81-6.25Z"/><path class="cls-5" d="m940.28,302.74c7.4,0,8.67-1.22,8.55,8.41.06,19.4-.09,39.95.12,59.35.04,3.58-.94,4.87-4.31,4.97-2.65.05-5.42.04-8.14.09-7-.08-7.48-.1-10.92-4.42-2.43-3.6-30.39-43.51-33.01-46.09-.19,1.93-.08,3.61-.09,5.19-.03,13.07,0,26.14-.02,39.21-.01,5.57-.46,5.99-5.93,6-2.72,0-5.44-.06-8.16.01-2.47.07-3.54-1.16-3.71-3.46-.08-1.03-.07-2.07-.07-3.1-.05-20.06.07-40.11.07-60.17,0-1.29-.06-2.59.18-3.87.26-1.41,1.07-2.16,2.63-2.17,6.34-.04,12.37,0,18.98-.01.51.04.93.42,1.35.71,2.91,3.63,5.88,7.29,8.7,11.11,5.23,7.2,10.27,14.43,15.41,21.8,3.19,4.65,5.92,8.86,9.55,13.92,0-11.8,0-23.41,0-35.03,0-2.06,0-4.13,0-6.19.04-6.96.03-6.25,8.81-6.25Z"/><path class="cls-3" d="m605.51,303.45c2.06.36,3.02.75,2.1,3.14-.88,3.03-1.35,6.75-2.88,8.6-2.17,1.38-3.9.1-7.43-.44-3.86-.25-8.65-.63-12.51-.87-4.27.07-7.26.56-10.88,1.26-2.63.51-5.18,1.05-7.64,2.06-2.4,1.04-4.04,2.86-5.24,5.13-3.14,7.2-3.05,14.75-2.28,22.33.18,1.77.22,3.56.66,5.33,1.78,7.3,6.4,11.13,13.8,11.78,1.05.29,2.14.2,3.2.37,3.99.57,7.98.55,11.97-.09q4.52-.23,4.55-4.63c.02-2.72.02-5.45,0-8.17-.03-4.21-.49-4.73-4.75-4.31-2.98.3-5.95.37-8.93.28-3.88-.12-4.76-1.06-4.98-4.89-.48-8.32-.13-8.8,8.31-8.63,4.88.1,15.07.13,17.38.05,4.32,0,4.82.04,8.09.08,2.5-.13,2.64,1.43,2.62,3.72-.1,11.52-.12,23.04.01,34.56.02,2.2-.87,2.91-2.76,3.23-5.61.95-11.24,1.75-16.93,2.03-10.84.27-21.75,2.1-32.42-1.59-1.22-.42-2.43-.82-3.56-1.42-3.27-2.24-6.86-4.11-9.08-7.61-1.49-1.92-2.67-4.02-3.6-6.27-4.24-13.22-4.51-26.43-.01-39.64,1.51-3.52,3.41-6.79,6.27-9.42,3.07-2.63,6.45-4.7,10.36-5.84,6.65-2.32,11.58-2.92,18.56-3,1.04-.01,20.36,1.55,28.01,2.87Z"/><path class="cls-3" d="m1031.01,264.18c.43.58.01,1.4-.71,1.4h-22.72c-.21,0-.38.17-.59.16-2.91-.16-3.9.32-5.46-1.49-6.68-7.75-12.32-15.22-18.33-22.96-4.17-5.45-9.02-10.27-13.85-15.11-3.9-4.16-8.21-7.84-12.9-11.08-1.26-.87-2.75-1.51-3.41-3.05-.08-.36-.09-.73-.04-1.1,2.24-3.01,5.64-4.7,8.3-7.24,1.38-1.32,2.97-2.43,4.22-3.9,3.49-3.41,6.9-6.9,10.38-10.33,6.97-6.9,13.4-14.28,19.59-21.87,2.64-3.24,1.19-3.99,10.18-3.99h20.47c.74,0,1.15.86.68,1.44-2.11,2.62-3.85,4.77-5.58,6.93-.02.03-.04.05-.06.08-4.07,6.7-10.2,11.62-15.19,17.53-2.58,3.06-5.64,5.69-8.45,8.56-.01.01-.03.03-.05.04-4.47,3.79-8.48,8.14-12.96,11.46-.5.37-.46,1.17.1,1.46,2.13,1.11,3.89,3.16,5.84,4.93,3.57,3.19,7.31,6.22,10.24,10.07.02.03.04.05.06.07,5.62,5.48,17.43,20.03,18.01,21.44.04.09,8.15,11.07,12.2,16.54Z"/><path class="cls-3" d="m672.81,330.65c1.89.12,2.38.85,2.5,2.8.62,9.56,0,9.65-8.88,9.6-6.61-.04-13.23.26-19.83.11-3.15-.08-3.77,1.18-3.76,3.92.01,3.89-.03,7.55,0,11.22.01,3.07.71,4.08,4,4.05,12.58-.12,25.15.19,37.73.08,3.1-.03,3.89-.92,3.78,7.4-.38,5.7,0,5.38-1.84,5.38-10.7.04-38.62.09-38.75.09-4.09,0-13.19-.1-19.88,0-1.35.02-1.83-1.27-2.09-2.46-.25-1.15-.17-2.32-.17-3.48,0-20.3-.01-40.59,0-60.89,0-5.83.18-5.94,6-5.76,5.39.17,10.25-.12,16.46,0,12.41.05,24.63.08,37.04,0,2.5-.02,3.26.94,3.23,3.62.03,2.26-.14,4.63-.12,6.96,0,1-.76,1.91-1.76,1.9-4.58-.05-1.65-.03-2.46-.04-12.47.23-25.53-.02-37.76.23-2.26.2-2.81,1.79-2.75,4.16.32,13.28-2.1,10.44,10.34,10.84,2.29.07,15.25.21,18.99.29Z"/><path class="cls-3" d="m849.39,330.8c1.89.12,2.38.85,2.5,2.8.62,9.56,0,9.65-8.88,9.6-6.61-.04-13.23.26-19.83.11-3.15-.08-3.77,1.18-3.76,3.92.01,3.89-.03,7.55,0,11.22.01,3.07.71,4.08,4,4.05,12.58-.12,25.15.19,37.73.08,3.1-.03,3.89-.92,3.78,7.4-.38,5.7,0,5.38-1.84,5.38-10.7.04-38.62.09-38.75.09-4.09,0-13.19-.1-19.88,0-1.35.02-1.83-1.27-2.09-2.46-.25-1.15-.17-2.32-.17-3.48,0-20.3-.01-40.59,0-60.89,0-5.83.18-5.94,6-5.76,5.39.17,10.25-.12,16.46,0,12.41.05,24.63.08,37.04,0,2.5-.02,3.26.94,3.23,3.62.03,2.26-.14,4.63-.12,6.96,0,1-.76,1.91-1.76,1.9-4.58-.05-1.65-.03-2.46-.04-12.47.23-25.53-.02-37.76.23-2.26.2-2.81,1.79-2.75,4.16.32,13.28-2.1,10.44,10.34,10.84,2.29.07,15.25.21,18.99.29Z"/><path class="cls-3" d="m991.81,302.46c13.34.05,25.44.08,38.77,0,2.64-.02,3.44,1.01,3.41,3.82-.09,8.77.04,8.77-8.58,8.8-5.7.02-11.35.08-17.09,0-2.59-.08-3.2.77-3.19,3.26.1,17.47-.03,34.94.14,52.41.03,3.18-.77,4.56-3.9,4.56s-7.27-.02-10.89,0c-1.34,0-2.26-1.7-2.31-2.38-.08-1.19-.09-2.32-.09-3.49,0-16.29,0-32.59,0-48.88-.03-5.43.04-5.43-5.2-5.43h-20.27c-3.18,0-3.41.25-3.61-2.04-.05-.52.02-3.82-.03-4.34.17-4.22-.55-6.45,3.87-6.28,1.23.05,2.66,0,4.88,0,6.08,0,12.42-.02,18.5,0,1.41,0,3.29,0,5.6,0Z"/><path class="cls-3" d="m904.74,241.42c-5.15-7.9-11.28-14.82-18.93-19.44,6.49.04,15.09-3.12,18.87-7.22,9.67-8.89,10.42-20.05,7.45-31.74-2.86-11.25-11.95-17.5-26.01-18.86-5.92-.51-11.84-1.25-17.78-1.3-15.81-.16-31.63-.06-47.44-.05-5.23,0-5.68.46-5.68,5.86-.01,22.15,0,44.3,0,66.45,0,9.07.04,18.14-.02,27.2-.03,3.67,1.57,3.4,7.41,3.51,4.5.08,6.62.05,10.87.05,4.95,0,6.81.03,6.99-3.26.06-1.16.04-2.33.05-3.5,0-9.2-.01-18.39.01-27.59,0-1.51-.34-3.64,1.86-3.62,5.92.07,11.91-1.05,17.75.8,7.8,4.63,13.55,11.36,19.19,18.26,4.15,5.08,7.45,10.81,12.14,15.46,1.37,2.57,3.47,3.23,6.35,3.12,6.31-.25,12.64-.05,18.96-.14,1.68-.02,3.48.49,5.44-.57-5.94-7.97-11.71-15.69-17.47-23.41Zm-23.4-32.76c-2.46,2.13-5.53,2.01-8.45,2.02-9.96.04-19.92-.18-29.88-.11-2.63.02-3.61-.65-3.55-3.44.18-7.88.08-15.77.05-23.66,0-1.65-.06-3.07,2.31-3.04,11.63.18,23.5-2.21,34.91.18,1.68.35,2.25.67,4.58,1.71,8.63,6.06,8.64,20.85.02,26.35Z"/><path class="cls-3" d="m393.5,241.42c-5.15-7.9-11.28-14.82-18.93-19.44,6.49.04,15.09-3.12,18.87-7.22,9.67-8.89,10.42-20.05,7.45-31.74-2.86-11.25-11.95-17.5-26.01-18.86-5.92-.51-11.84-1.25-17.78-1.3-15.81-.16-31.63-.06-47.44-.05-5.23,0-5.68.46-5.68,5.86-.01,22.15,0,44.3,0,66.45,0,9.07.04,18.14-.02,27.2-.03,3.67,1.57,3.4,7.41,3.51,4.5.08,6.62.05,10.87.05,4.95,0,6.81.03,6.99-3.26.06-1.16.04-2.33.05-3.5,0-9.2-.01-18.39.01-27.59,0-1.51-.34-3.64,1.86-3.62,5.92.07,11.91-1.05,17.75.8,7.8,4.63,13.55,11.36,19.19,18.26,4.15,5.08,7.45,10.81,12.14,15.46,1.37,2.57,3.47,3.23,6.35,3.12,6.31-.25,12.64-.05,18.96-.14,1.68-.02,3.48.49,5.44-.57-5.94-7.97-11.71-15.69-17.47-23.41Zm-23.4-32.76c-2.46,2.13-5.53,2.01-8.45,2.02-9.96.04-19.92-.18-29.88-.11-2.63.02-3.61-.65-3.55-3.44.18-7.88.08-15.77.05-23.66,0-1.65-.06-3.07,2.31-3.04,11.63.18,23.5-2.21,34.91.18,1.68.35,2.25.67,4.58,1.71,8.63,6.06,8.64,20.85.02,26.35Z"/><path class="cls-3" d="m796.46,204.7c-1.15-18.2-7.87-32.87-26.43-39.53-1.32-.85-2.82-1.21-4.31-1.59-9.99-2.53-20.15-3.42-30.44-3.05-1.39.35-2.8.42-4.22.42-8.56.02-16.88,1.42-24.97,4.21-3.96,1.77-7.93,3.52-11.18,6.49-3.78,3.43-7.02,7.27-9.17,11.95-3.98,7.9-5.1,16.48-5.41,25.11-.45,12.69.22,25.29,6.07,37,2.33,5.22,6.39,9.03,10.5,12.78,2.62,1.66,5.27,3.22,8.14,4.46,7.23,3.13,14.97,3.74,22.61,4.9,1.77.43,3.56.34,5.36.3,3.7-.02,7.41-.03,11.11,0,4.5-.39,9.05-.12,13.49-1.13,5.85-1.33,12.01-1.78,17.06-5.56,11.76-6.16,18.01-16.14,20.53-28.92,1.82-9.25,1.87-18.56,1.28-27.86Zm-26.31,28.96c-1.54,8.75-6.65,13.6-17.15,15.19-10.04,1.52-20.15,1.44-30.17-.49-7.92-1.53-13.14-6.22-14.83-14.06-2.81-13.05-2.72-26.21-.27-39.33,1.51-8.11,6.38-13.18,14.6-14.58,11.58-1.97,23.23-2.23,34.76.26,7.4,1.61,11.99,6.28,13.12,13.97,2.84,13.02,2.79,26.02-.05,39.03Z"/><path class="cls-6" d="m958.37,212.16c-1.62.99-.86,2.58-.86,3.88-.06,14.89-.21,29.79.07,44.68.08,4.1-1.21,5.06-5.02,4.84-5.04-.29-10.11-.12-15.16.07-2.42.09-3.43-.48-3.43-3.17.08-31.86.08-63.72,0-95.59,0-2.56.78-3.4,3.34-3.3,5.57.21,11.15.28,16.71.14,2.78-.07,3.51.94,3.49,3.59-.11,13.34-.08,26.68-.01,40.02,0,1.27-.81,2.91.98,3.78-.04.35-.08.7-.12,1.05Z"/><path class="cls-3" d="m339.73,304.72c-.76-1.91-2.2-2.67-4.26-2.65-4.13.05-8.26.02-12.39.01-2.06,0-4.14.17-6.18-.04-3.64-.37-5.78,1.15-7.09,4.51-1.49,3.83-3.32,7.53-5.25,11.18-2.79,6.67-6.03,13.13-8.74,19.84-2.86,6.93-6.04,13.72-8.69,20.73-1.87,4.38-3.51,8.84-5.27,13.27-1,2.51-.23,3.66,2.47,3.65,3.61-.02,7.24-.23,10.83.06,3.39.27,4.92-1.34,5.87-4.26,1.12-3.42,2.46-6.77,3.6-10.17.86-2.56,2.22-3.59,4.79-3.22,9.57.34,19.12-.48,28.69-.37,2.5.03,4.07.62,5.08,3.09,1.56,3.82,3.21,7.64,5.37,11.18,1.9,3.12,2.49,3.87,7.23,3.75h13.12c-4.87-10.77-24.39-58.5-29.2-70.56Zm-18.16,40.03h0s0,0,0,0h-11.58c2.81-6.65,5.2-13.16,8.45-19.3h0c1.29-3.03,2.61-6.05,3.87-9.1.43-1.04,1.03-1.65,2.27-1.68,1.36-.04,1.76.84,2.11,1.82.6,1.68,1.15,3.37,1.72,5.06,3.08,7.67,6.16,15.34,9.31,23.2h-16.15Z"/><path class="cls-3" d="m510.56,305.18c-.76-1.91-2.2-2.67-4.26-2.65-4.13.05-8.26.02-12.39.01-2.06,0-4.14.17-6.18-.04-3.64-.37-5.78,1.15-7.09,4.51-1.49,3.83-3.32,7.53-5.25,11.18-2.79,6.67-6.03,13.13-8.74,19.84-2.86,6.93-6.04,13.72-8.69,20.73-1.87,4.38-3.51,8.84-5.27,13.27-1,2.51-.23,3.66,2.47,3.65,3.61-.02,7.24-.23,10.83.06,3.39.27,4.92-1.34,5.87-4.26,1.12-3.42,2.46-6.77,3.6-10.17.86-2.56,2.22-3.59,4.79-3.22,9.57.34,19.12-.48,28.69-.37,2.5.03,4.07.62,5.08,3.09,1.56,3.82,3.21,7.64,5.37,11.18,1.9,3.12,2.49,3.87,7.23,3.75h13.12c-4.87-10.77-24.39-58.5-29.2-70.56Zm-18.16,40.03h0s0,0,0,0h-11.58c2.81-6.65,5.2-13.16,8.45-19.3h0c1.29-3.03,2.61-6.05,3.87-9.1.43-1.04,1.03-1.65,2.27-1.68,1.36-.04,1.76.84,2.11,1.82.6,1.68,1.15,3.37,1.72,5.06,3.08,7.67,6.16,15.34,9.31,23.2h-16.15Z"/><path class="cls-3" d="m252.15,169.88c-1.06-2.65-3.04-3.7-5.89-3.66-5.71.08-11.42.03-17.13.02-2.85,0-5.73.24-8.55-.05-5.03-.51-7.99,1.58-9.8,6.24-2.06,5.3-4.59,10.42-7.26,15.46-3.86,9.22-8.35,18.17-12.09,27.44-3.96,9.58-8.36,18.98-12.02,28.68-2.58,6.05-4.86,12.23-7.29,18.35-1.38,3.47-.32,5.06,3.42,5.05,4.99-.02,10.01-.31,14.98.09,4.69.38,6.8-1.85,8.12-5.89,1.54-4.73,3.4-9.36,4.99-14.06,1.19-3.54,3.07-4.97,6.63-4.45,13.23.48,26.45-.66,39.69-.51,3.46.04,5.63.85,7.03,4.27,2.16,5.29,4.45,10.57,7.42,15.46,2.62,4.31,3.44,4.31,10.01,4.13h18.15c-6.73-14.9-33.74-79.87-40.4-96.55Zm-25.12,55.37h0s0,0,0,0h-16.02c3.89-9.2,7.2-18.2,11.69-26.7h0c1.79-4.19,3.6-8.37,5.36-12.58.6-1.44,1.43-2.28,3.14-2.33,1.88-.05,2.44,1.16,2.92,2.51.83,2.32,1.59,4.67,2.37,7,4.26,10.61,8.51,21.22,12.88,32.09h-22.34Z"/></g><g><rect class="cls-4" x="557.39" y="40.03" width="485.01" height="97.96"/><path class="cls-1" d="m846.95,113.02c-7-.04-12.12-.63-17.25-1.48-2.52-.41-2.45-1.48-1.9-3.38,1.44-5.02,1.38-5,6.66-4.18,5.4.84,10.83,1.02,16.26.44,1.4-.15,2.84-.45,4.13-1,2.07-.88,3.19-2.55,3.2-4.88.01-2.21-1.09-3.66-3.04-4.53-3.25-1.45-6.74-1.78-10.22-2.03-3.5-.25-6.96-.77-10.29-1.87-4.71-1.56-7.83-4.61-8.17-9.75-.36-5.39,1.28-9.96,6.2-12.88,3.78-2.24,8.02-2.93,12.28-3.3,7.14-.63,14.22-.02,21.26,1.32,1.96.37,2.2,1.01,1.67,2.85-1.53,5.36-1.42,5.31-6.88,4.53-5.4-.77-10.84-.95-16.27-.32-1.39.16-2.78.61-4.07,1.17-1.84.8-2.65,2.39-2.69,4.37-.04,2.12,1.19,3.3,3.03,4.03,3.93,1.57,8.17,1.24,12.22,2.01,2.41.46,4.86.8,7.19,1.54,6.61,2.1,9.51,6.05,9.47,12.52-.04,6.65-3.13,10.87-9.59,12.98-1.35.44-2.75.73-4.15.98-3.58.64-7.2.9-9.03.86Z"/><path class="cls-1" d="m710.83,88.51c0-7,.06-14-.04-20.99-.04-2.71.86-2.84,5.85-2.84,11.03.01,20.05.21,30.68,0,6.48-.13,5.23,1.81,5.28,3.77.04,1.84.73,4.16-2.58,4.16-9.61,0-13.83.16-22.25.06-1.3-.02-2.83-.06-4.47-.06-1.77,0-1.34,1.36-1.34,4.44,0,6.29-.13,6.45,1.29,6.45,1.8,0,4.29,0,6.32,0,3.63,0,7.24,0,10.86-.01,3.15,0,3.19,1.51,3.32,3.82,0,.05,0,.1,0,.15-.13,2.16-.16,3.97-3.17,3.98-5.17,0-11.43.03-16.62-.11-2.33-.06-2.05,0-1.99,7.8.05,5.21.02,5.3,1.62,5.3h22.97c7.05,0,5.89,1.7,6,4.07-.05,2.26.84,4.19-4.07,4.15-10.85-.08-20.59,0-32.57-.06-4.64-.02-5.15-.08-5.11-2.7.11-7,.04-14.39.04-21.39Z"/><path class="cls-1" d="m784.2,112.97c-3.51.15-6.99-.16-10.45-.77-9.38-1.64-14.59-6.85-16.28-16.27-.95-5.29-.96-10.56.04-15.84,1.63-8.65,6.33-13.5,14.99-15.16,8.38-1.61,16.77-1.09,25.14.3,1.77.3,2.71.57,2.05,2.86-1.52,5.27-1.36,5.24-6.8,4.58-4.77-.58-9.57-.69-14.35-.1-5.66.69-8.28,3.17-9.43,8.7-.91,4.37-.89,8.76-.14,13.13,1.14,6.66,4.13,9.9,10.91,9.98,5.19.06,10.35.33,15.5-.63,5.03-.39,4.54,4.46,4.3,5.95-.58,1.98-1.69,2.02-2.69,2.19-4.21.7-8.47,1.26-12.77,1.07Z"/><path class="cls-1" d="m816.76,88.5c0,6.81.04,13.62.04,20.43,0,3.09-1.57,3.69-3.58,3.71-7.32.1-7.36.1-7.36-8.27,0-12.16.07-24.32-.06-36.48q0-3.21,5.5-3.21c5.5,0,5.46-.05,5.46,7.52v16.3Z"/><path class="cls-1" d="m889.57,88.53c0,6.81.04,13.62.04,20.43,0,3.09-1.57,3.69-3.58,3.71-7.32.1-7.36.1-7.36-8.27,0-12.16.07-24.32-.06-36.48q0-3.21,5.5-3.21c5.5,0,5.46-.05,5.46,7.52v16.3Z"/><path class="cls-1" d="m687.55,91.73c-.1-.08-.06-.23.07-.25,6.36-.86,11.58-2.58,13.16-9.2,2.37-9.89-3.3-17.18-13.71-17.4-9.59-.2-19.2.05-28.8-.12-2.68-.05-3.49.58-3.45,3.37.17,12.05,0,24.25,0,36.31,0,8.85-.54,8.29,4.81,8.22s6.08.79,6.08-2.98c0-4.41-.04-8.88,0-13.28,0-.94-.21-2.38,1.28-2.34,3.31.1,8.59-.72,12.21,2.68,4.29,4.03,7.77,8.68,11.22,13.37.74,1.01,1.47,2.62,3.15,2.57,3.73-.09,7.47-.03,11.83-.03.12,0,.19-.13.12-.23-5.54-7.45-10.52-15.02-17.94-20.71Zm-19.81-5.08c-1.82.04-2.25-.74-2.09-2.31.06-.64.01-1.3.02-1.94.03-3.05.03-7.48.03-8.56,0-.42.5-1.19,1.04-1.23,2.12-.14,8.66.07,8.66,0,2.34,0,4.67-.06,7.01.01,4.39.13,6.55,2.43,6.62,6.9.06,4.38-2.12,6.91-6.49,7.05-4.92.16-9.86-.03-14.79.08Z"/><path class="cls-1" d="m951.99,79.27c-1.63-7.36-6.29-11.29-13.74-13.06-8.33-1.97-16.68-1.97-25.02-.14-8.44,1.85-12.84,6.41-14.15,14.87-.8,5.16-.8,10.3.18,15.44,1.69,8.94,7.46,13.94,16.44,15.54,3.45.61,14.33.88,16.26.73,11.74-.92,17.64-5.41,19.9-14.89,1.45-6.11,1.5-12.32.14-18.48Zm-11.35,17.36c-.77,4.13-3.1,6.8-7.27,7.54-5,.89-10.05.89-15.06.04-4.18-.71-6.56-3.29-7.39-7.43-1-5.01-1.07-10.05-.33-15.06,1-6.73,3.35-8.75,10.25-9.3,1.67-.13,3.36-.19,5.03-.29,12.73.08,15.43,2.81,15.48,15.62.01,2.99-.17,5.94-.72,8.88Z"/><path class="cls-1" d="m637.06,64.68c-2.17,0-9.59.03-14.18-.07-4.15,0-8.31,0-12.46,0-1.82,0-3.63,0-5.45,0-3.07-.04-2.98,1.2-3.01,5.65-.07,12.1-.18,24.45-.07,36.05.04,4.65-.36,6.34,2.72,6.34h3.7c3.99,0,4.5-1.08,4.56-5.16.04-3.34-.04-6.84-.05-10.14,0-.36.29-.66.66-.66,2.07,0,8.5,0,11.73,0h13.48c5.91,0,9.33-7.63,9.27-15.9-.06-8.5-2.31-16.13-10.9-16.13Zm-11.85,24.06c-3.45-.02-10.24-.03-11.98-.04-.23,0-.41-.19-.41-.42,0-1.93,0-11.25,0-14.83,0-.99.7-.84.7-.84,190.96-.33,9.26,0,11.69.05,10.37-.05,11.76,1.37,11.76,7.95,0,5.95,0,8.1-11.76,8.14Z"/><path class="cls-1" d="m1004.76,64.83c4.86,0,5.69-.8,5.61,5.52.04,12.73-.06,26.22.08,38.95.03,2.35-.62,3.19-2.83,3.26-1.74.03-3.56.03-5.34.06-4.59-.05-4.91-.07-7.16-2.9-1.59-2.36-19.94-28.55-21.66-30.25-.12,1.26-.06,2.37-.06,3.41-.02,8.58,0,17.15-.02,25.73,0,3.66-.3,3.93-3.89,3.94-1.78,0-3.57-.04-5.35,0-1.62.04-2.32-.76-2.44-2.27-.05-.68-.04-1.36-.04-2.04-.03-13.16.04-26.32.04-39.48,0-.85-.04-1.7.12-2.54.17-.92.7-1.42,1.73-1.43,4.16-.03,8.12,0,12.45,0,.34.02.61.28.89.47,1.91,2.38,3.86,4.78,5.71,7.29,3.43,4.72,6.74,9.47,10.11,14.31,2.09,3.05,3.89,5.81,6.27,9.13,0-7.75,0-15.36,0-22.98,0-1.35,0-2.71,0-4.06.03-4.57.02-4.1,5.78-4.1Z"/></g></g><path class="cls-2" d="m509.87,133.49c-1.46-2.18-2.55-4.57-3.95-6.79-1.04-1.6-1.93-3.28-2.94-4.89-1.21-2.33-2.84-4.4-4.17-6.65-1.29-1.84-2.57-3.68-3.79-5.57-1.01-1.59-2.29-3-3.29-4.59-1.33-1.58-2.5-3.28-3.77-4.91-1.46-2.15-3.35-3.97-4.77-6.16-.61-.75-1.22-1.49-1.84-2.22h0c-5.63-8.18-15.11-17.46-24.46-25.66-.34-.34-.68-.68-1.01-1.02-.93-.76-1.87-1.5-2.8-2.27-.38-.32-.76-.65-1.13-.96-.91-.78-1.79-1.59-2.61-2.48-1.37-1.02-2.71-2.11-4.13-3.07-2.21-1.85-4.41-3.63-6.6-5.33-.37-.29-.73-.57-1.1-.85-2.69-2.07-5.35-4.01-7.98-5.86-.28-.2-.43-.31-.43-.31h0c-34.05-23.83-62.6-30.25-62.6-30.25-1.5-.48-2.99-.94-4.48-1.39-4.09-1.3-8.22-2.49-12.41-3.46-8.86-2.69-17.86-4.71-27.09-5.62-.6-.2-1.19-.52-1.8-.59-9.8-1.13-19.6-2.32-29.48-2.58-1.31.07-2.61.14-3.92.21-13.59-.54-27.09.32-40.51,2.44-7.6.74-15.02,2.54-22.53,3.85-.36.18-.71.35-1.07.53-8.49,1.96-15.38,4.02-20.42,5.72-3.21,1.03-6.42,2.09-9.64,3.1-.01.19-.04.38-.08.57-5.07,1.58-9.97,3.53-14.78,5.7-19.58,8.27-35.21,17.89-47.46,27.2-.76.54-1.53,1.07-2.3,1.61-1.29,1.09-2.57,2.18-3.86,3.27-1.14.94-2.25,1.87-3.32,2.8-6.42,4.41-11.73,10.13-17.69,15.08-3.49,4.22-7.93,7.57-11.11,12.08h0c-4.73,4.16-8.13,9.49-12.42,14.04-5.2,7.5-11.06,14.55-15.44,22.61h0c-.3.24-.94,1.73-1.24,1.97-7.58,12.93-14.24,24.91-19.82,38.85-.44,1.1-.71,2.33-2.36,1.84-2.6-.44-5.2-.88-7.8-1.32h0c-2.08-.55-4.16-1.1-6.24-1.64-8.95-1.71-17.91-3.41-27.2-5.18,7.54,20.91,14.94,41.43,22.34,61.96,3.44,9.08,6.87,18.17,10.31,27.25,2.76,7.83,5.51,15.67,8.29,23.49,1.81,5.09,1.83,5.08,6.52,3.12,6.22-2.98,12.45-5.97,18.67-8.95,1.29-.47,2.59-.94,3.88-1.41,7.81-3.79,15.63-7.58,23.44-11.37,0,0,0,0,0,0,3.87-1.64,7.74-3.27,11.62-4.91,5.72-2.84,11.43-5.67,17.15-8.51,4.67-2.03,9.34-4.06,14.01-6.09,7.88-3.75,15.76-7.5,23.91-11.38-7.67-4.18-15.02-8.18-22.36-12.19-5.19-2.56-10.39-5.13-15.58-7.69h0c-2.81-1.56-5.56-3.26-8.47-4.62-1.98-.93-2.18-1.93-1.41-3.87,3.09-7.79,6.99-15.19,10.68-22.7,3.72-5.81,7.03-11.89,11.54-17.17.62-.96,1.15-1.99,1.87-2.87,4.27-5.29,8.58-10.54,12.88-15.8,1.08-1.06,2.17-2.11,3.25-3.17,5.76-5.14,11.51-10.27,17.27-15.41,1.86-1.6,3.62-3.36,6.1-4.01,5.75-4.91,12.55-8.21,18.81-12.34,9.09-4.65,18.48-8.63,27.96-12.41,8.43-2.27,16.86-4.54,25.28-6.81.21-.03.44-.08.69-.19,6.7-.47,13.24-2.26,19.99-2.26,2.03-.07,4.06-.15,6.09-.22,1.45-.7,2.99-.18,4.48-.36,2.68-.33,5.46.67,8.07-.45v.17c1.4.57,2.87.16,4.31.29.06,0,.13,0,.19,0,.07.12.13.25.2.37,1.28-.04,2.55-.08,3.83-.11,9.16.79,18.23,2.26,27.27,3.92,8.96,2.2,17.7,5.1,26.46,7.97,12.14,5.26,23.95,11.17,35.07,18.38h0s0,0,0,0c12.85,8.81,24.45,19.05,35.05,30.45,0,0,.01,0,.02,0,0,0,0,.02,0,.03.97,1.01,2.14,1.3,3.66,1.53,4.29.65,5.6,0,11.12.24,1.81-.08,3.62-.17,5.43-.25,11.08,0,19.21,0,28.81,0,13.99,0,27.98,0,41.97,0,.6-1.37-.32-2.39-.8-3.51Z"/></svg>